<?xml version="1.0" standalone="no"?>
<!DOCTYPE svg PUBLIC "-//W3C//DTD SVG 20010904//EN"
 "http://www.w3.org/TR/2001/REC-SVG-20010904/DTD/svg10.dtd">
<svg version="1.0" xmlns="http://www.w3.org/2000/svg"
 width="161.000000pt" height="161.000000pt" viewBox="0 0 161.000000 161.000000"
 preserveAspectRatio="xMidYMid meet">
<metadata>
Created by potrace 1.14, written by Peter Selinger 2001-2017
</metadata>
<g transform="translate(0.000000,161.000000) scale(0.100000,-0.100000)"
fill="#000000" stroke="none">
<path d="M1448 1592 c-1 -4 -37 -27 -78 -51 -41 -24 -91 -54 -110 -66 -19 -12
-226 -136 -460 -275 -234 -139 -432 -259 -440 -267 -8 -7 -15 -33 -16 -56 -3
-86 -5 -232 -5 -245 1 -8 11 -13 24 -12 79 7 79 7 -86 -153 l-157 -153 0 -156
c0 -190 -10 -185 160 -78 41 26 296 183 567 349 l491 302 -1 137 -2 137 -55
12 c-30 6 -57 12 -60 12 -7 1 28 33 153 135 l107 89 0 173 c0 144 -2 174 -14
174 -8 0 -16 -3 -18 -8z"/>
</g>
</svg>
